<svg width="1200" height="800" viewBox="0 0 1200 800" fill="none" xmlns="http://www.w3.org/2000/svg">
  <defs>
    <linearGradient id="bg" x1="0" y1="0" x2="1" y2="1">
      <stop offset="0%" stop-color="#1D293F" />
      <stop offset="100%" stop-color="#0B1220" />
    </linearGradient>
    <linearGradient id="accent" x1="0" y1="0" x2="1" y2="1">
      <stop offset="0%" stop-color="#6EE7F7" />
      <stop offset="100%" stop-color="#7C3AED" />
    </linearGradient>
    <filter id="blur" x="-20%" y="-20%" width="140%" height="140%">
      <feGaussianBlur stdDeviation="18" />
    </filter>
  </defs>
  <rect width="1200" height="800" rx="48" fill="url(#bg)" />
  <rect x="100" y="120" width="1000" height="520" rx="32" fill="rgba(255,255,255,0.08)" stroke="rgba(255,255,255,0.15)" stroke-width="2" />
  <rect x="140" y="170" width="460" height="64" rx="20" fill="rgba(255,255,255,0.18)" />
  <rect x="140" y="260" width="860" height="32" rx="16" fill="rgba(255,255,255,0.12)" />
  <rect x="140" y="310" width="620" height="24" rx="12" fill="rgba(255,255,255,0.12)" />
  <rect x="140" y="360" width="760" height="320" rx="24" fill="url(#bg)" opacity="0.6" />
  <circle cx="240" cy="420" r="40" fill="rgba(110,231,247,0.8)" filter="url(#blur)" />
  <path d="M220 500 C260 470 360 470 420 520 C480 570 560 560 640 520 C720 480 780 530 860 510" stroke="url(#accent)" stroke-width="18" stroke-linecap="round" fill="none" opacity="0.95" />
  <rect x="180" y="520" width="380" height="40" rx="20" fill="rgba(255,255,255,0.14)" />
  <rect x="180" y="582" width="600" height="42" rx="20" fill="rgba(255,255,255,0.14)" />
  <rect x="180" y="650" width="320" height="32" rx="16" fill="rgba(255,255,255,0.14)" />
</svg>
